<mxfile host="Electron" agent="Mozilla/5.0 (Windows NT 10.0; Win64; x64) AppleWebKit/537.36 (KHTML, like Gecko) draw.io/24.7.8 Chrome/128.0.6613.36 Electron/32.0.1 Safari/537.36" version="24.7.8">
  <diagram name="Page-1" id="gLkGKnfizAvZEUvHVz8S">
    <mxGraphModel dx="343" dy="470" grid="1" gridSize="10" guides="1" tooltips="1" connect="1" arrows="1" fold="1" page="1" pageScale="1" pageWidth="850" pageHeight="1100" math="0" shadow="0">
      <root>
        <mxCell id="0" />
        <mxCell id="1" parent="0" />
        <mxCell id="LMOTFYctCzuMMqy_z9B_-4" value="" style="rounded=0;whiteSpace=wrap;html=1;" vertex="1" parent="1">
          <mxGeometry x="300" y="170" width="130" height="280" as="geometry" />
        </mxCell>
        <mxCell id="rR6ZCuq2_Zl7c_EayDFu-1" value="Doctor" style="shape=umlActor;verticalLabelPosition=bottom;verticalAlign=top;html=1;outlineConnect=0;" parent="1" vertex="1">
          <mxGeometry x="230" y="250" width="30" height="60" as="geometry" />
        </mxCell>
        <mxCell id="rR6ZCuq2_Zl7c_EayDFu-3" value="&lt;font style=&quot;font-size: 20px;&quot;&gt;Mister ED&lt;/font&gt;" style="rounded=0;whiteSpace=wrap;html=1;" parent="1" vertex="1">
          <mxGeometry x="300" y="140" width="130" height="30" as="geometry" />
        </mxCell>
        <mxCell id="rR6ZCuq2_Zl7c_EayDFu-4" value="Order Lab Tests" style="ellipse;whiteSpace=wrap;html=1;" parent="1" vertex="1">
          <mxGeometry x="320" y="330" width="100" height="40" as="geometry" />
        </mxCell>
        <mxCell id="rR6ZCuq2_Zl7c_EayDFu-7" value="Provide Medical Advice" style="ellipse;whiteSpace=wrap;html=1;" parent="1" vertex="1">
          <mxGeometry x="320" y="380" width="100" height="40" as="geometry" />
        </mxCell>
        <mxCell id="rR6ZCuq2_Zl7c_EayDFu-8" value="Confirm Triage Decision" style="ellipse;whiteSpace=wrap;html=1;" parent="1" vertex="1">
          <mxGeometry x="320" y="230" width="100" height="40" as="geometry" />
        </mxCell>
        <mxCell id="rR6ZCuq2_Zl7c_EayDFu-9" value="Review Virtual Triage Results" style="ellipse;whiteSpace=wrap;html=1;" parent="1" vertex="1">
          <mxGeometry x="320" y="180" width="100" height="40" as="geometry" />
        </mxCell>
        <mxCell id="rR6ZCuq2_Zl7c_EayDFu-10" value="Prescribe Medication" style="ellipse;whiteSpace=wrap;html=1;" parent="1" vertex="1">
          <mxGeometry x="320" y="280" width="100" height="40" as="geometry" />
        </mxCell>
        <mxCell id="rR6ZCuq2_Zl7c_EayDFu-16" value="" style="endArrow=classic;html=1;rounded=0;entryX=0;entryY=0.5;entryDx=0;entryDy=0;exitX=0.5;exitY=0.5;exitDx=0;exitDy=0;exitPerimeter=0;" parent="1" source="rR6ZCuq2_Zl7c_EayDFu-1" target="rR6ZCuq2_Zl7c_EayDFu-9" edge="1">
          <mxGeometry relative="1" as="geometry">
            <mxPoint x="190" y="300" as="sourcePoint" />
            <mxPoint x="290" y="300" as="targetPoint" />
          </mxGeometry>
        </mxCell>
        <mxCell id="rR6ZCuq2_Zl7c_EayDFu-19" value="" style="endArrow=classic;html=1;rounded=0;entryX=0.007;entryY=0.393;entryDx=0;entryDy=0;entryPerimeter=0;exitX=0.5;exitY=0.5;exitDx=0;exitDy=0;exitPerimeter=0;" parent="1" source="rR6ZCuq2_Zl7c_EayDFu-1" target="rR6ZCuq2_Zl7c_EayDFu-8" edge="1">
          <mxGeometry relative="1" as="geometry">
            <mxPoint x="250" y="290" as="sourcePoint" />
            <mxPoint x="340" y="279.72" as="targetPoint" />
          </mxGeometry>
        </mxCell>
        <mxCell id="rR6ZCuq2_Zl7c_EayDFu-23" value="" style="endArrow=classic;html=1;rounded=0;entryX=0.048;entryY=0.485;entryDx=0;entryDy=0;entryPerimeter=0;exitX=0.5;exitY=0.5;exitDx=0;exitDy=0;exitPerimeter=0;" parent="1" source="rR6ZCuq2_Zl7c_EayDFu-1" target="rR6ZCuq2_Zl7c_EayDFu-10" edge="1">
          <mxGeometry relative="1" as="geometry">
            <mxPoint x="250" y="280" as="sourcePoint" />
            <mxPoint x="321" y="316" as="targetPoint" />
          </mxGeometry>
        </mxCell>
        <mxCell id="rR6ZCuq2_Zl7c_EayDFu-24" value="" style="endArrow=classic;html=1;rounded=0;entryX=0;entryY=0;entryDx=0;entryDy=0;" parent="1" target="rR6ZCuq2_Zl7c_EayDFu-4" edge="1">
          <mxGeometry relative="1" as="geometry">
            <mxPoint x="250" y="280" as="sourcePoint" />
            <mxPoint x="325" y="399" as="targetPoint" />
          </mxGeometry>
        </mxCell>
        <mxCell id="rR6ZCuq2_Zl7c_EayDFu-26" value="" style="endArrow=classic;html=1;rounded=0;entryX=0;entryY=0.5;entryDx=0;entryDy=0;" parent="1" source="rR6ZCuq2_Zl7c_EayDFu-1" target="rR6ZCuq2_Zl7c_EayDFu-7" edge="1">
          <mxGeometry relative="1" as="geometry">
            <mxPoint x="415" y="322" as="sourcePoint" />
            <mxPoint x="457" y="345" as="targetPoint" />
          </mxGeometry>
        </mxCell>
      </root>
    </mxGraphModel>
  </diagram>
</mxfile>
